<svg width="93" height="19" viewBox="0 0 93 19" fill="none" xmlns="http://www.w3.org/2000/svg">
<path d="M5.5297 0.566044H8.18183L13.6656 14.8038H10.9935L9.65745 11.035H3.97432L2.63828 14.8038H0.065918L5.5297 0.566044ZM4.6523 9.14059H8.9994L6.86574 3.01876H6.80591L4.6523 9.14059Z" fill="white"/>
<path d="M14.7621 4.49438H16.9157V5.89024H16.9556C17.2747 5.29202 17.72 4.86661 18.2917 4.61403C18.8633 4.34815 19.4815 4.21521 20.1462 4.21521C20.9571 4.21521 21.6617 4.36144 22.2599 4.65391C22.8714 4.93308 23.3766 5.32525 23.7754 5.83042C24.1742 6.32229 24.4733 6.90057 24.6727 7.56527C24.8721 8.22996 24.9718 8.94118 24.9718 9.69894C24.9718 10.3902 24.8788 11.0616 24.6927 11.713C24.5198 12.3644 24.2473 12.9426 23.8751 13.4478C23.5162 13.9397 23.0575 14.3385 22.4992 14.6443C21.9408 14.9367 21.2828 15.083 20.525 15.083C20.1927 15.083 19.8603 15.0497 19.528 14.9832C19.1956 14.9301 18.8766 14.837 18.5708 14.7041C18.2651 14.5711 17.9793 14.405 17.7134 14.2056C17.4608 13.9929 17.2481 13.7469 17.0753 13.4677H17.0354V18.6125H14.7621V4.49438ZM22.6986 9.65905C22.6986 9.19377 22.6388 8.74178 22.5191 8.30308C22.3995 7.86438 22.22 7.47886 21.9807 7.14651C21.7414 6.80087 21.4423 6.52835 21.0834 6.32894C20.7244 6.11624 20.3123 6.00989 19.847 6.00989C18.8899 6.00989 18.1654 6.34223 17.6735 7.00693C17.1949 7.67162 16.9556 8.55566 16.9556 9.65905C16.9556 10.1775 17.0155 10.6627 17.1351 11.1147C17.268 11.5534 17.4608 11.9323 17.7134 12.2514C17.966 12.5704 18.2651 12.823 18.6107 13.0091C18.9697 13.1952 19.3818 13.2883 19.847 13.2883C20.3655 13.2883 20.8042 13.1819 21.1631 12.9692C21.5221 12.7565 21.8145 12.484 22.0405 12.1517C22.2798 11.806 22.446 11.4205 22.5391 10.9951C22.6454 10.5564 22.6986 10.111 22.6986 9.65905Z" fill="white"/>
<path d="M26.9525 4.49438H29.1061V5.89024H29.146C29.4651 5.29202 29.9104 4.86661 30.482 4.61403C31.0537 4.34815 31.6718 4.21521 32.3365 4.21521C33.1475 4.21521 33.852 4.36144 34.4503 4.65391C35.0618 4.93308 35.567 5.32525 35.9658 5.83042C36.3646 6.32229 36.6637 6.90057 36.8631 7.56527C37.0625 8.22996 37.1622 8.94118 37.1622 9.69894C37.1622 10.3902 37.0692 11.0616 36.883 11.713C36.7102 12.3644 36.4377 12.9426 36.0655 13.4478C35.7065 13.9397 35.2479 14.3385 34.6896 14.6443C34.1312 14.9367 33.4732 15.083 32.7154 15.083C32.3831 15.083 32.0507 15.0497 31.7184 14.9832C31.386 14.9301 31.067 14.837 30.7612 14.7041C30.4555 14.5711 30.1696 14.405 29.9038 14.2056C29.6512 13.9929 29.4385 13.7469 29.2657 13.4677H29.2258V18.6125H26.9525V4.49438ZM34.889 9.65905C34.889 9.19377 34.8291 8.74178 34.7095 8.30308C34.5899 7.86438 34.4104 7.47886 34.1711 7.14651C33.9318 6.80087 33.6327 6.52835 33.2738 6.32894C32.9148 6.11624 32.5027 6.00989 32.0374 6.00989C31.0803 6.00989 30.3558 6.34223 29.8639 7.00693C29.3853 7.67162 29.146 8.55566 29.146 9.65905C29.146 10.1775 29.2058 10.6627 29.3255 11.1147C29.4584 11.5534 29.6512 11.9323 29.9038 12.2514C30.1563 12.5704 30.4555 12.823 30.8011 13.0091C31.16 13.1952 31.5721 13.2883 32.0374 13.2883C32.5559 13.2883 32.9946 13.1819 33.3535 12.9692C33.7125 12.7565 34.0049 12.484 34.2309 12.1517C34.4702 11.806 34.6364 11.4205 34.7294 10.9951C34.8358 10.5564 34.889 10.111 34.889 9.65905Z" fill="white"/>
<path d="M46.5872 10.0579C46.5872 10.6029 46.6803 11.0682 46.8664 11.4537C47.0525 11.8392 47.3117 12.1583 47.6441 12.4109C47.9764 12.6502 48.3553 12.8296 48.7807 12.9493C49.2194 13.0556 49.6913 13.1088 50.1965 13.1088C50.7415 13.1088 51.2068 13.049 51.5924 12.9293C51.9779 12.7964 52.2903 12.6302 52.5296 12.4308C52.7689 12.2314 52.9417 12.0054 53.048 11.7528C53.1544 11.487 53.2076 11.2211 53.2076 10.9552C53.2076 10.4102 53.0813 10.0113 52.8287 9.75876C52.5894 9.49288 52.3235 9.30677 52.0311 9.20041C51.5259 9.0143 50.9343 8.84148 50.2563 8.68195C49.5916 8.50913 48.7674 8.28978 47.7837 8.02391C47.1721 7.86438 46.6603 7.65832 46.2482 7.40574C45.8494 7.13986 45.5303 6.8474 45.2911 6.52835C45.0518 6.20929 44.8789 5.8703 44.7726 5.51136C44.6795 5.15243 44.633 4.78685 44.633 4.41462C44.633 3.69675 44.7792 3.07859 45.0717 2.56013C45.3775 2.02837 45.7763 1.58967 46.2682 1.24403C46.76 0.898391 47.3184 0.645807 47.9432 0.48628C48.568 0.313461 49.1995 0.227051 49.8376 0.227051C50.582 0.227051 51.2799 0.326755 51.9313 0.526163C52.596 0.712277 53.1743 0.998095 53.6662 1.38362C54.1714 1.76914 54.5702 2.24772 54.8626 2.81936C55.1551 3.3777 55.3013 4.0291 55.3013 4.77355H52.8087C52.7423 3.85628 52.4299 3.21152 51.8715 2.8393C51.3132 2.45377 50.602 2.26101 49.7379 2.26101C49.4454 2.26101 49.1463 2.29425 48.8405 2.36072C48.5348 2.41389 48.2556 2.5136 48.003 2.65983C47.7504 2.79277 47.5377 2.97888 47.3649 3.21817C47.2054 3.45746 47.1256 3.75657 47.1256 4.11551C47.1256 4.62068 47.2785 5.01949 47.5842 5.31196C47.9033 5.59113 48.3154 5.80383 48.8206 5.95006C48.8738 5.96336 49.0798 6.02318 49.4387 6.12953C49.811 6.22259 50.2231 6.32894 50.6751 6.44858C51.1271 6.56823 51.5658 6.68787 51.9912 6.80752C52.4299 6.91387 52.7423 6.99363 52.9284 7.04681C53.3937 7.19304 53.7991 7.39245 54.1448 7.64503C54.4904 7.89761 54.7762 8.19008 55.0022 8.52243C55.2415 8.84148 55.4143 9.18712 55.5207 9.55935C55.6403 9.93158 55.7002 10.3038 55.7002 10.676C55.7002 11.4737 55.534 12.1583 55.2016 12.7299C54.8826 13.2883 54.4572 13.7469 53.9254 14.1059C53.3937 14.4648 52.7888 14.724 52.1108 14.8835C51.4328 15.0564 50.7415 15.1428 50.037 15.1428C49.226 15.1428 48.4616 15.0431 47.7438 14.8437C47.0259 14.6443 46.4011 14.3385 45.8693 13.9264C45.3376 13.5143 44.9122 12.9892 44.5931 12.3511C44.2741 11.6997 44.1079 10.9353 44.0946 10.0579H46.5872Z" fill="white"/>
<path d="M56.5265 4.49438H58.2414V1.40356H60.5146V4.49438H62.5685V6.18935H60.5146V11.693C60.5146 11.9323 60.5213 12.1384 60.5346 12.3112C60.5611 12.484 60.6077 12.6302 60.6741 12.7499C60.7539 12.8695 60.8669 12.9626 61.0131 13.0291C61.1594 13.0822 61.3588 13.1088 61.6114 13.1088C61.7709 13.1088 61.9304 13.1088 62.0899 13.1088C62.2495 13.0955 62.409 13.0689 62.5685 13.0291V14.7838C62.3159 14.8104 62.07 14.837 61.8307 14.8636C61.5914 14.8902 61.3455 14.9035 61.0929 14.9035C60.4947 14.9035 60.0095 14.8503 59.6372 14.744C59.2783 14.6243 58.9925 14.4581 58.7798 14.2454C58.5804 14.0194 58.4408 13.7403 58.361 13.4079C58.2945 13.0756 58.2547 12.6967 58.2414 12.2713V6.18935H56.5265V4.49438Z" fill="white"/>
<path d="M68.9298 15.083C68.1056 15.083 67.3678 14.95 66.7164 14.6841C66.0783 14.405 65.5332 14.0261 65.0812 13.5475C64.6425 13.0689 64.3035 12.4973 64.0642 11.8326C63.8382 11.1679 63.7252 10.4367 63.7252 9.63911C63.7252 8.85477 63.8382 8.13026 64.0642 7.46556C64.3035 6.80087 64.6425 6.22923 65.0812 5.75065C65.5332 5.27208 66.0783 4.89985 66.7164 4.63397C67.3678 4.3548 68.1056 4.21521 68.9298 4.21521C69.754 4.21521 70.4852 4.3548 71.1233 4.63397C71.7747 4.89985 72.3197 5.27208 72.7584 5.75065C73.2104 6.22923 73.5494 6.80087 73.7754 7.46556C74.0147 8.13026 74.1343 8.85477 74.1343 9.63911C74.1343 10.4367 74.0147 11.1679 73.7754 11.8326C73.5494 12.4973 73.2104 13.0689 72.7584 13.5475C72.3197 14.0261 71.7747 14.405 71.1233 14.6841C70.4852 14.95 69.754 15.083 68.9298 15.083ZM68.9298 13.2883C69.435 13.2883 69.8737 13.1819 70.2459 12.9692C70.6181 12.7565 70.9239 12.4774 71.1632 12.1317C71.4025 11.7861 71.5753 11.4006 71.6816 10.9751C71.8013 10.5364 71.8611 10.0911 71.8611 9.63911C71.8611 9.20041 71.8013 8.76172 71.6816 8.32302C71.5753 7.88432 71.4025 7.4988 71.1632 7.16645C70.9239 6.82081 70.6181 6.54164 70.2459 6.32894C69.8737 6.11624 69.435 6.00989 68.9298 6.00989C68.4246 6.00989 67.9859 6.11624 67.6137 6.32894C67.2415 6.54164 66.9357 6.82081 66.6964 7.16645C66.4571 7.4988 66.2777 7.88432 66.158 8.32302C66.0517 8.76172 65.9985 9.20041 65.9985 9.63911C65.9985 10.0911 66.0517 10.5364 66.158 10.9751C66.2777 11.4006 66.4571 11.7861 66.6964 12.1317C66.9357 12.4774 67.2415 12.7565 67.6137 12.9692C67.9859 13.1819 68.4246 13.2883 68.9298 13.2883Z" fill="white"/>
<path d="M76.0242 4.49438H78.1579V6.48846H78.1978C78.2642 6.20929 78.3905 5.93677 78.5766 5.67089C78.776 5.40501 79.0087 5.16572 79.2746 4.95302C79.5537 4.72703 79.8595 4.54756 80.1918 4.41462C80.5242 4.28168 80.8632 4.21521 81.2088 4.21521C81.4747 4.21521 81.6542 4.22186 81.7472 4.23515C81.8536 4.24845 81.9599 4.26174 82.0663 4.27503V6.46852C81.9067 6.44194 81.7406 6.42199 81.5677 6.4087C81.4082 6.38211 81.2487 6.36882 81.0892 6.36882C80.7037 6.36882 80.3381 6.44858 79.9924 6.60811C79.6601 6.75434 79.3676 6.98034 79.115 7.2861C78.8624 7.57856 78.663 7.94414 78.5168 8.38284C78.3706 8.82154 78.2975 9.32671 78.2975 9.89834V14.8038H76.0242V4.49438Z" fill="white"/>
<path d="M89.7631 8.74178C89.7365 8.38284 89.6568 8.0372 89.5238 7.70485C89.4042 7.37251 89.2314 7.08669 89.0054 6.8474C88.7927 6.59482 88.5268 6.39541 88.2077 6.24917C87.902 6.08965 87.5563 6.00989 87.1708 6.00989C86.772 6.00989 86.4064 6.083 86.0741 6.22923C85.755 6.36217 85.4758 6.55493 85.2365 6.80752C85.0106 7.04681 84.8244 7.33263 84.6782 7.66497C84.5453 7.99732 84.4722 8.35625 84.4589 8.74178H89.7631ZM84.4589 10.2373C84.4589 10.6362 84.512 11.0217 84.6184 11.3939C84.738 11.7661 84.9109 12.0918 85.1368 12.371C85.3628 12.6502 85.6487 12.8762 85.9943 13.049C86.3399 13.2085 86.7521 13.2883 87.2306 13.2883C87.8953 13.2883 88.4271 13.1487 88.8259 12.8695C89.238 12.5771 89.5438 12.145 89.7432 11.5734H91.8968C91.7771 12.1317 91.5711 12.6302 91.2786 13.0689C90.9862 13.5076 90.6339 13.8799 90.2217 14.1856C89.8096 14.4781 89.3444 14.6974 88.8259 14.8437C88.3207 15.0032 87.789 15.083 87.2306 15.083C86.4197 15.083 85.7018 14.95 85.077 14.6841C84.4522 14.4183 83.9205 14.046 83.4818 13.5675C83.0564 13.0889 82.7307 12.5172 82.5047 11.8525C82.292 11.1878 82.1856 10.4567 82.1856 9.65905C82.1856 8.92789 82.2986 8.23661 82.5246 7.58521C82.7639 6.92052 83.0962 6.34223 83.5216 5.85036C83.9603 5.34519 84.4855 4.94638 85.097 4.65391C85.7085 4.36144 86.3998 4.21521 87.1708 4.21521C87.9817 4.21521 88.7063 4.38803 89.3444 4.73367C89.9958 5.06602 90.5342 5.51136 90.9596 6.06971C91.385 6.62805 91.6907 7.2728 91.8768 8.00397C92.0763 8.72184 92.1294 9.46629 92.0364 10.2373H84.4589Z" fill="white"/>
</svg>
