<svg width="93" height="9" viewBox="0 0 93 9" fill="none" xmlns="http://www.w3.org/2000/svg">
<path d="M0.0246582 0.167236H3.21519C3.80443 0.167236 4.31463 0.267838 4.74578 0.469043C5.17693 0.670247 5.52904 0.946904 5.8021 1.29901C6.07517 1.64393 6.27637 2.04994 6.40572 2.51702C6.54225 2.9841 6.61051 3.48352 6.61051 4.01527C6.61051 4.54703 6.54225 5.04645 6.40572 5.51353C6.27637 5.98061 6.07517 6.39021 5.8021 6.74231C5.52904 7.08724 5.17693 7.3603 4.74578 7.5615C4.31463 7.76271 3.80443 7.86331 3.21519 7.86331H0.0246582V0.167236ZM1.37201 6.76387H2.6978C3.22237 6.76387 3.64993 6.69561 3.98048 6.55907C4.31822 6.41536 4.5805 6.22134 4.76734 5.97702C4.96136 5.72551 5.0907 5.43448 5.15537 5.10393C5.22723 4.7662 5.26316 4.40331 5.26316 4.01527C5.26316 3.62724 5.22723 3.26794 5.15537 2.93739C5.0907 2.59966 4.96136 2.30863 4.76734 2.06431C4.5805 1.8128 4.31822 1.61878 3.98048 1.48225C3.64993 1.33853 3.22237 1.26668 2.6978 1.26668H1.37201V6.76387Z" fill="white"/>
<path d="M10.8324 8.01421C10.3868 8.01421 9.98802 7.94236 9.63591 7.79864C9.29099 7.64773 8.99637 7.44294 8.75205 7.18425C8.51491 6.92555 8.33167 6.61656 8.20233 6.25727C8.08017 5.89797 8.01909 5.50275 8.01909 5.0716C8.01909 4.64763 8.08017 4.256 8.20233 3.89671C8.33167 3.53741 8.51491 3.22842 8.75205 2.96973C8.99637 2.71104 9.29099 2.50983 9.63591 2.36611C9.98802 2.21521 10.3868 2.13976 10.8324 2.13976C11.2779 2.13976 11.6731 2.21521 12.018 2.36611C12.3701 2.50983 12.6648 2.71104 12.9019 2.96973C13.1462 3.22842 13.3294 3.53741 13.4516 3.89671C13.581 4.256 13.6456 4.64763 13.6456 5.0716C13.6456 5.50275 13.581 5.89797 13.4516 6.25727C13.3294 6.61656 13.1462 6.92555 12.9019 7.18425C12.6648 7.44294 12.3701 7.64773 12.018 7.79864C11.6731 7.94236 11.2779 8.01421 10.8324 8.01421ZM10.8324 7.04412C11.1054 7.04412 11.3426 6.98663 11.5438 6.87166C11.745 6.75669 11.9102 6.60578 12.0396 6.41895C12.1689 6.23212 12.2623 6.02373 12.3198 5.79378C12.3845 5.55664 12.4168 5.31592 12.4168 5.0716C12.4168 4.83446 12.3845 4.59733 12.3198 4.3602C12.2623 4.12306 12.1689 3.91467 12.0396 3.73502C11.9102 3.54819 11.745 3.39729 11.5438 3.28231C11.3426 3.16734 11.1054 3.10985 10.8324 3.10985C10.5593 3.10985 10.3222 3.16734 10.121 3.28231C9.91975 3.39729 9.75448 3.54819 9.62513 3.73502C9.49578 3.91467 9.39878 4.12306 9.3341 4.3602C9.27662 4.59733 9.24787 4.83446 9.24787 5.0716C9.24787 5.31592 9.27662 5.55664 9.3341 5.79378C9.39878 6.02373 9.49578 6.23212 9.62513 6.41895C9.75448 6.60578 9.91975 6.75669 10.121 6.87166C10.3222 6.98663 10.5593 7.04412 10.8324 7.04412Z" fill="white"/>
<path d="M14.8073 2.29066H16.1115L17.2002 6.45129H17.2218L18.2673 2.29066H19.5069L20.5093 6.45129H20.5308L21.6626 2.29066H22.913L21.1668 7.86331H19.9057L18.8709 3.72425H18.8494L17.8254 7.86331H16.5319L14.8073 2.29066Z" fill="white"/>
<path d="M24.35 2.29066H25.5141V3.10985L25.5357 3.13141C25.7225 2.82242 25.9668 2.58169 26.2686 2.40923C26.5704 2.22958 26.9046 2.13976 27.2711 2.13976C27.8819 2.13976 28.3633 2.29785 28.7154 2.61403C29.0675 2.93021 29.2436 3.40447 29.2436 4.03683V7.86331H28.0148V4.3602C28.0004 3.92186 27.907 3.60568 27.7346 3.41166C27.5621 3.21046 27.2926 3.10985 26.9261 3.10985C26.7177 3.10985 26.5309 3.14938 26.3656 3.22842C26.2004 3.30028 26.0602 3.40447 25.9453 3.54101C25.8303 3.67035 25.7405 3.82485 25.6758 4.0045C25.6111 4.18414 25.5788 4.37457 25.5788 4.57577V7.86331H24.35V2.29066Z" fill="white"/>
<path d="M31.2185 0.167236H32.4473V7.86331H31.2185V0.167236Z" fill="white"/>
<path d="M36.9874 8.01421C36.5419 8.01421 36.1431 7.94236 35.791 7.79864C35.446 7.64773 35.1514 7.44294 34.9071 7.18425C34.67 6.92555 34.4867 6.61656 34.3574 6.25727C34.2352 5.89797 34.1741 5.50275 34.1741 5.0716C34.1741 4.64763 34.2352 4.256 34.3574 3.89671C34.4867 3.53741 34.67 3.22842 34.9071 2.96973C35.1514 2.71104 35.446 2.50983 35.791 2.36611C36.1431 2.21521 36.5419 2.13976 36.9874 2.13976C37.4329 2.13976 37.8282 2.21521 38.1731 2.36611C38.5252 2.50983 38.8198 2.71104 39.0569 2.96973C39.3013 3.22842 39.4845 3.53741 39.6067 3.89671C39.736 4.256 39.8007 4.64763 39.8007 5.0716C39.8007 5.50275 39.736 5.89797 39.6067 6.25727C39.4845 6.61656 39.3013 6.92555 39.0569 7.18425C38.8198 7.44294 38.5252 7.64773 38.1731 7.79864C37.8282 7.94236 37.4329 8.01421 36.9874 8.01421ZM36.9874 7.04412C37.2605 7.04412 37.4976 6.98663 37.6988 6.87166C37.9 6.75669 38.0653 6.60578 38.1946 6.41895C38.324 6.23212 38.4174 6.02373 38.4749 5.79378C38.5396 5.55664 38.5719 5.31592 38.5719 5.0716C38.5719 4.83446 38.5396 4.59733 38.4749 4.3602C38.4174 4.12306 38.324 3.91467 38.1946 3.73502C38.0653 3.54819 37.9 3.39729 37.6988 3.28231C37.4976 3.16734 37.2605 3.10985 36.9874 3.10985C36.7143 3.10985 36.4772 3.16734 36.276 3.28231C36.0748 3.39729 35.9095 3.54819 35.7802 3.73502C35.6508 3.91467 35.5538 4.12306 35.4892 4.3602C35.4317 4.59733 35.4029 4.83446 35.4029 5.0716C35.4029 5.31592 35.4317 5.55664 35.4892 5.79378C35.5538 6.02373 35.6508 6.23212 35.7802 6.41895C35.9095 6.60578 36.0748 6.75669 36.276 6.87166C36.4772 6.98663 36.7143 7.04412 36.9874 7.04412Z" fill="white"/>
<path d="M46.1362 6.62375C46.1362 6.77465 46.1541 6.88244 46.1901 6.94711C46.2332 7.01178 46.3122 7.04412 46.4272 7.04412C46.4631 7.04412 46.5063 7.04412 46.5566 7.04412C46.6069 7.04412 46.6643 7.03694 46.729 7.02256V7.87409C46.6859 7.88846 46.6284 7.90283 46.5566 7.91721C46.4919 7.93876 46.4236 7.95673 46.3518 7.9711C46.2799 7.98547 46.208 7.99625 46.1362 8.00344C46.0643 8.01062 46.0032 8.01421 45.9529 8.01421C45.7014 8.01421 45.493 7.96391 45.3278 7.86331C45.1625 7.76271 45.0547 7.58666 45.0044 7.33515C44.7601 7.57228 44.4583 7.74474 44.099 7.85253C43.7469 7.96032 43.4055 8.01421 43.075 8.01421C42.8235 8.01421 42.5828 7.97829 42.3528 7.90643C42.1229 7.84175 41.9181 7.74474 41.7384 7.6154C41.566 7.47887 41.4258 7.31 41.318 7.10879C41.2174 6.9004 41.1671 6.65968 41.1671 6.38661C41.1671 6.04169 41.2282 5.76144 41.3504 5.54587C41.4797 5.33029 41.645 5.16142 41.8462 5.03926C42.0546 4.9171 42.2845 4.83087 42.5361 4.78057C42.7947 4.72308 43.0534 4.67997 43.3121 4.65122C43.5349 4.60811 43.7469 4.57936 43.9481 4.56499C44.1493 4.54344 44.3253 4.5111 44.4762 4.46798C44.6343 4.42487 44.7565 4.3602 44.8427 4.27397C44.9361 4.18055 44.9828 4.04402 44.9828 3.86437C44.9828 3.70628 44.9433 3.57694 44.8643 3.47633C44.7924 3.37573 44.699 3.30028 44.584 3.24998C44.4762 3.19249 44.3541 3.15656 44.2176 3.14219C44.081 3.12063 43.9517 3.10985 43.8295 3.10985C43.4846 3.10985 43.2007 3.18171 42.978 3.32543C42.7552 3.46915 42.6295 3.69191 42.6007 3.99372H41.3719C41.3935 3.63442 41.4797 3.33621 41.6306 3.09907C41.7815 2.86194 41.972 2.67151 42.2019 2.5278C42.439 2.38408 42.7049 2.28348 42.9995 2.22599C43.2942 2.1685 43.596 2.13976 43.905 2.13976C44.178 2.13976 44.4475 2.1685 44.7134 2.22599C44.9793 2.28348 45.2164 2.37689 45.4248 2.50624C45.6404 2.63559 45.8128 2.80445 45.9422 3.01284C46.0715 3.21405 46.1362 3.46196 46.1362 3.75658V6.62375ZM44.9074 5.0716C44.7206 5.19376 44.4906 5.26921 44.2176 5.29795C43.9445 5.31951 43.6714 5.35544 43.3984 5.40574C43.269 5.4273 43.1433 5.45963 43.0211 5.50275C42.8989 5.53868 42.7912 5.59257 42.6977 5.66443C42.6043 5.72911 42.5289 5.81893 42.4714 5.9339C42.4211 6.04169 42.3959 6.17463 42.3959 6.33272C42.3959 6.46925 42.4355 6.58422 42.5145 6.67764C42.5935 6.77106 42.687 6.84651 42.7948 6.904C42.9097 6.9543 43.0319 6.99023 43.1612 7.01178C43.2978 7.03334 43.4199 7.04412 43.5277 7.04412C43.6642 7.04412 43.8116 7.02616 43.9696 6.99023C44.1277 6.9543 44.275 6.89322 44.4116 6.80699C44.5553 6.72076 44.6739 6.61297 44.7673 6.48362C44.8607 6.34709 44.9074 6.18182 44.9074 5.9878V5.0716Z" fill="white"/>
<path d="M53.3544 7.86331H52.1903V7.10879H52.1687C52.0034 7.43216 51.7627 7.6657 51.4465 7.80942C51.1303 7.94595 50.7962 8.01421 50.4441 8.01421C50.0057 8.01421 49.6213 7.93876 49.2908 7.78786C48.9674 7.62977 48.6979 7.41779 48.4823 7.15191C48.2668 6.88603 48.1051 6.57345 47.9973 6.21415C47.8895 5.84767 47.8356 5.45604 47.8356 5.03926C47.8356 4.53625 47.9039 4.1015 48.0404 3.73502C48.1769 3.36855 48.3566 3.06674 48.5794 2.8296C48.8093 2.59247 49.068 2.42001 49.3554 2.31222C49.65 2.19725 49.9483 2.13976 50.2501 2.13976C50.4225 2.13976 50.5986 2.15772 50.7782 2.19365C50.9579 2.2224 51.1303 2.2727 51.2956 2.34456C51.4609 2.41642 51.6118 2.50983 51.7483 2.62481C51.892 2.73259 52.0106 2.86194 52.104 3.01284H52.1256V0.167236H53.3544V7.86331ZM49.0644 5.13627C49.0644 5.3734 49.0931 5.60695 49.1506 5.83689C49.2153 6.06684 49.3087 6.27164 49.4309 6.45129C49.5602 6.63093 49.7219 6.77465 49.9159 6.88244C50.1099 6.99023 50.3399 7.04412 50.6058 7.04412C50.8788 7.04412 51.1124 6.98663 51.3064 6.87166C51.5076 6.75669 51.6693 6.60578 51.7914 6.41895C51.9208 6.23212 52.0142 6.02373 52.0717 5.79378C52.1364 5.55664 52.1687 5.31592 52.1687 5.0716C52.1687 4.45361 52.0286 3.97216 51.7483 3.62724C51.4753 3.28231 51.1016 3.10985 50.6273 3.10985C50.3399 3.10985 50.0956 3.17093 49.8944 3.29309C49.7003 3.40807 49.5387 3.56256 49.4093 3.75658C49.2872 3.94342 49.1973 4.15899 49.1399 4.40331C49.0896 4.64045 49.0644 4.88476 49.0644 5.13627Z" fill="white"/>
<path d="M61.5425 8.01421C61.097 8.01421 60.6981 7.94236 60.346 7.79864C60.0011 7.64773 59.7065 7.44294 59.4622 7.18425C59.225 6.92555 59.0418 6.61656 58.9124 6.25727C58.7903 5.89797 58.7292 5.50275 58.7292 5.0716C58.7292 4.64763 58.7903 4.256 58.9124 3.89671C59.0418 3.53741 59.225 3.22842 59.4622 2.96973C59.7065 2.71104 60.0011 2.50983 60.346 2.36611C60.6981 2.21521 61.097 2.13976 61.5425 2.13976C61.988 2.13976 62.3832 2.21521 62.7281 2.36611C63.0803 2.50983 63.3749 2.71104 63.612 2.96973C63.8563 3.22842 64.0396 3.53741 64.1617 3.89671C64.2911 4.256 64.3558 4.64763 64.3558 5.0716C64.3558 5.50275 64.2911 5.89797 64.1617 6.25727C64.0396 6.61656 63.8563 6.92555 63.612 7.18425C63.3749 7.44294 63.0803 7.64773 62.7281 7.79864C62.3832 7.94236 61.988 8.01421 61.5425 8.01421ZM61.5425 7.04412C61.8155 7.04412 62.0527 6.98663 62.2539 6.87166C62.4551 6.75669 62.6204 6.60578 62.7497 6.41895C62.8791 6.23212 62.9725 6.02373 63.03 5.79378C63.0946 5.55664 63.127 5.31592 63.127 5.0716C63.127 4.83446 63.0946 4.59733 63.03 4.3602C62.9725 4.12306 62.8791 3.91467 62.7497 3.73502C62.6204 3.54819 62.4551 3.39729 62.2539 3.28231C62.0527 3.16734 61.8155 3.10985 61.5425 3.10985C61.2694 3.10985 61.0323 3.16734 60.8311 3.28231C60.6299 3.39729 60.4646 3.54819 60.3353 3.73502C60.2059 3.91467 60.1089 4.12306 60.0442 4.3602C59.9867 4.59733 59.958 4.83446 59.958 5.0716C59.958 5.31592 59.9867 5.55664 60.0442 5.79378C60.1089 6.02373 60.2059 6.23212 60.3353 6.41895C60.4646 6.60578 60.6299 6.75669 60.8311 6.87166C61.0323 6.98663 61.2694 7.04412 61.5425 7.04412Z" fill="white"/>
<path d="M66.024 2.29066H67.1881V3.10985L67.2097 3.13141C67.3965 2.82242 67.6408 2.58169 67.9426 2.40923C68.2445 2.22958 68.5786 2.13976 68.9451 2.13976C69.5559 2.13976 70.0373 2.29785 70.3894 2.61403C70.7415 2.93021 70.9176 3.40447 70.9176 4.03683V7.86331H69.6888V4.3602C69.6744 3.92186 69.581 3.60568 69.4086 3.41166C69.2361 3.21046 68.9666 3.10985 68.6002 3.10985C68.3918 3.10985 68.2049 3.14938 68.0397 3.22842C67.8744 3.30028 67.7343 3.40447 67.6193 3.54101C67.5043 3.67035 67.4145 3.82485 67.3498 4.0045C67.2851 4.18414 67.2528 4.37457 67.2528 4.57577V7.86331H66.024V2.29066Z" fill="white"/>
<path d="M75.9463 2.29066H76.8733V0.619947H78.1021V2.29066H79.2123V3.20686H78.1021V6.18182C78.1021 6.31116 78.1057 6.42254 78.1129 6.51596C78.1272 6.60938 78.1524 6.68842 78.1883 6.75309C78.2314 6.81777 78.2925 6.86807 78.3716 6.904C78.4506 6.93274 78.5584 6.94711 78.6949 6.94711C78.7812 6.94711 78.8674 6.94711 78.9536 6.94711C79.0399 6.93993 79.1261 6.92555 79.2123 6.904V7.85253C79.0758 7.8669 78.9428 7.88128 78.8135 7.89565C78.6842 7.91002 78.5512 7.91721 78.4147 7.91721C78.0913 7.91721 77.829 7.88846 77.6278 7.83098C77.4338 7.7663 77.2793 7.67648 77.1643 7.5615C77.0566 7.43934 76.9811 7.28844 76.938 7.10879C76.9021 6.92915 76.8805 6.72435 76.8733 6.4944V3.20686H75.9463V2.29066Z" fill="white"/>
<path d="M80.743 0.167236H81.9718V3.02362H81.9933C82.1442 2.77212 82.367 2.56373 82.6616 2.39845C82.9634 2.22599 83.2976 2.13976 83.6641 2.13976C84.2749 2.13976 84.7563 2.29785 85.1084 2.61403C85.4605 2.93021 85.6366 3.40447 85.6366 4.03683V7.86331H84.4078V4.3602C84.3934 3.92186 84.3 3.60568 84.1275 3.41166C83.9551 3.21046 83.6856 3.10985 83.3191 3.10985C83.1107 3.10985 82.9239 3.14938 82.7586 3.22842C82.5934 3.30028 82.4532 3.40447 82.3383 3.54101C82.2233 3.67035 82.1335 3.82485 82.0688 4.0045C82.0041 4.18414 81.9718 4.37457 81.9718 4.57577V7.86331H80.743V0.167236Z" fill="white"/>
<path d="M91.4056 4.58655C91.3912 4.39253 91.3481 4.2057 91.2763 4.02605C91.2116 3.84641 91.1182 3.69191 90.996 3.56256C90.881 3.42603 90.7373 3.31824 90.5649 3.2392C90.3996 3.15297 90.2127 3.10985 90.0044 3.10985C89.7888 3.10985 89.5912 3.14938 89.4115 3.22842C89.2391 3.30028 89.0882 3.40447 88.9588 3.54101C88.8366 3.67035 88.7361 3.82485 88.657 4.0045C88.5851 4.18414 88.5456 4.37816 88.5384 4.58655H91.4056ZM88.5384 5.39496C88.5384 5.61054 88.5672 5.81893 88.6247 6.02013C88.6893 6.22134 88.7828 6.39739 88.9049 6.5483C89.0271 6.6992 89.1816 6.82136 89.3684 6.91478C89.5552 7.00101 89.778 7.04412 90.0367 7.04412C90.396 7.04412 90.6834 6.96867 90.899 6.81777C91.1218 6.65968 91.287 6.42614 91.3948 6.11714H92.5589C92.4943 6.41895 92.3829 6.68842 92.2248 6.92555C92.0667 7.16269 91.8763 7.36389 91.6535 7.52917C91.4308 7.68726 91.1793 7.80582 90.899 7.88487C90.6259 7.9711 90.3385 8.01421 90.0367 8.01421C89.5984 8.01421 89.2103 7.94236 88.8726 7.79864C88.5349 7.65492 88.2474 7.45372 88.0103 7.19502C87.7803 6.93633 87.6043 6.62734 87.4821 6.26805C87.3671 5.90875 87.3097 5.51353 87.3097 5.08238C87.3097 4.68715 87.3707 4.31349 87.4929 3.96138C87.6222 3.60209 87.8019 3.2895 88.0318 3.02362C88.269 2.75056 88.5528 2.53498 88.8834 2.37689C89.2139 2.2188 89.5876 2.13976 90.0044 2.13976C90.4427 2.13976 90.8343 2.23318 91.1793 2.42001C91.5314 2.59966 91.8224 2.84038 92.0523 3.14219C92.2823 3.444 92.4476 3.79251 92.5482 4.18774C92.6559 4.57577 92.6847 4.97818 92.6344 5.39496H88.5384Z" fill="white"/>
</svg>
