<svg width="44" height="9" viewBox="0 0 44 9" fill="none" xmlns="http://www.w3.org/2000/svg">
<path d="M7.27867 8.559H6.41636L6.21156 7.65358C5.85227 8.06318 5.49298 8.34702 5.13368 8.50511C4.77439 8.6632 4.3612 8.74224 3.89412 8.74224C3.31925 8.74224 2.80187 8.63805 2.34197 8.42966C1.88926 8.21408 1.50481 7.92305 1.18864 7.55657C0.872457 7.19009 0.628137 6.76253 0.455676 6.27389C0.290401 5.78525 0.207764 5.26428 0.207764 4.71096C0.207764 4.16484 0.290401 3.64745 0.455676 3.15881C0.628137 2.67018 0.872457 2.24262 1.18864 1.87614C1.50481 1.50966 1.88926 1.21863 2.34197 1.00305C2.80187 0.787476 3.31925 0.679688 3.89412 0.679688C4.3109 0.679688 4.70612 0.737174 5.07979 0.852148C5.46064 0.959936 5.79838 1.12521 6.093 1.34797C6.38762 1.56355 6.63194 1.83661 6.82596 2.16716C7.01998 2.49771 7.14214 2.87857 7.19244 3.30972H5.87742C5.84149 3.05821 5.76245 2.83904 5.64029 2.65221C5.52531 2.45819 5.378 2.29651 5.19836 2.16716C5.01871 2.03782 4.8175 1.94081 4.59474 1.87614C4.37198 1.81146 4.13844 1.77913 3.89412 1.77913C3.48452 1.77913 3.12882 1.86176 2.82702 2.02704C2.53239 2.19231 2.29167 2.41508 2.10484 2.69533C1.918 2.96839 1.77788 3.28097 1.68446 3.63308C1.59823 3.98519 1.55512 4.34448 1.55512 4.71096C1.55512 5.07744 1.59823 5.43674 1.68446 5.78885C1.77788 6.14095 1.918 6.45713 2.10484 6.73738C2.29167 7.01044 2.53239 7.22961 2.82702 7.39489C3.12882 7.56016 3.48452 7.6428 3.89412 7.6428C4.23904 7.64999 4.54444 7.60687 4.81032 7.51346C5.0762 7.41285 5.29896 7.27273 5.4786 7.09308C5.66544 6.90625 5.80556 6.6799 5.89898 6.41402C5.9924 6.14814 6.0427 5.85352 6.04988 5.53015H4.00191V4.50617H7.27867V8.559Z" fill="white"/>
<path d="M12.6119 5.28224C12.5975 5.08822 12.5544 4.90139 12.4826 4.72174C12.4179 4.5421 12.3245 4.3876 12.2023 4.25825C12.0873 4.12172 11.9436 4.01393 11.7712 3.93489C11.6059 3.84866 11.4191 3.80554 11.2107 3.80554C10.9951 3.80554 10.7975 3.84507 10.6178 3.92411C10.4454 3.99597 10.2945 4.10016 10.1651 4.2367C10.043 4.36604 9.94235 4.52054 9.86331 4.70019C9.79145 4.87983 9.75193 5.07385 9.74474 5.28224H12.6119ZM9.74474 6.09065C9.74474 6.30623 9.77348 6.51462 9.83097 6.71582C9.89564 6.91703 9.98906 7.09308 10.1112 7.24399C10.2334 7.39489 10.3879 7.51705 10.5747 7.61047C10.7615 7.6967 10.9843 7.73981 11.243 7.73981C11.6023 7.73981 11.8897 7.66436 12.1053 7.51346C12.3281 7.35537 12.4933 7.12183 12.6011 6.81283H13.7652C13.7006 7.11464 13.5892 7.38411 13.4311 7.62124C13.273 7.85838 13.0826 8.05958 12.8598 8.22486C12.6371 8.38295 12.3856 8.50152 12.1053 8.58056C11.8322 8.66679 11.5448 8.70991 11.243 8.70991C10.8047 8.70991 10.4166 8.63805 10.0789 8.49433C9.74115 8.35061 9.45371 8.14941 9.21658 7.89072C8.98663 7.63202 8.81058 7.32303 8.68842 6.96374C8.57344 6.60444 8.51596 6.20922 8.51596 5.77807C8.51596 5.38284 8.57704 5.00918 8.6992 4.65707C8.82854 4.29778 9.00819 3.98519 9.23814 3.71931C9.47527 3.44625 9.75911 3.23067 10.0897 3.07258C10.4202 2.91449 10.7939 2.83545 11.2107 2.83545C11.649 2.83545 12.0406 2.92887 12.3856 3.1157C12.7377 3.29535 13.0287 3.53607 13.2586 3.83788C13.4886 4.13969 13.6539 4.4882 13.7545 4.88343C13.8622 5.27146 13.891 5.67387 13.8407 6.09065H9.74474Z" fill="white"/>
<path d="M14.4299 2.98635H15.3569V1.31564H16.5857V2.98635H17.6959V3.90255H16.5857V6.87751C16.5857 7.00685 16.5893 7.11823 16.5964 7.21165C16.6108 7.30507 16.636 7.38411 16.6719 7.44878C16.715 7.51346 16.7761 7.56376 16.8551 7.59969C16.9342 7.62843 17.042 7.6428 17.1785 7.6428C17.2647 7.6428 17.351 7.6428 17.4372 7.6428C17.5234 7.63562 17.6097 7.62124 17.6959 7.59969V8.54822C17.5594 8.56259 17.4264 8.57697 17.2971 8.59134C17.1677 8.60571 17.0348 8.6129 16.8983 8.6129C16.5749 8.6129 16.3126 8.58415 16.1114 8.52667C15.9174 8.46199 15.7629 8.37217 15.6479 8.25719C15.5401 8.13504 15.4647 7.98413 15.4216 7.80448C15.3856 7.62484 15.3641 7.42004 15.3569 7.19009V3.90255H14.4299V2.98635Z" fill="white"/>
<path d="M22.0433 0.862927H23.2721V2.02704H22.0433V0.862927ZM22.0433 2.98635H23.2721V8.559H22.0433V2.98635Z" fill="white"/>
<path d="M24.266 2.98635H25.193V1.31564H26.4218V2.98635H27.532V3.90255H26.4218V6.87751C26.4218 7.00685 26.4254 7.11823 26.4325 7.21165C26.4469 7.30507 26.4721 7.38411 26.508 7.44878C26.5511 7.51346 26.6122 7.56376 26.6912 7.59969C26.7703 7.62843 26.8781 7.6428 27.0146 7.6428C27.1008 7.6428 27.1871 7.6428 27.2733 7.6428C27.3595 7.63562 27.4457 7.62124 27.532 7.59969V8.54822C27.3954 8.56259 27.2625 8.57697 27.1332 8.59134C27.0038 8.60571 26.8709 8.6129 26.7343 8.6129C26.411 8.6129 26.1487 8.58415 25.9475 8.52667C25.7535 8.46199 25.599 8.37217 25.484 8.25719C25.3762 8.13504 25.3008 7.98413 25.2576 7.80448C25.2217 7.62484 25.2002 7.42004 25.193 7.19009V3.90255H24.266V2.98635Z" fill="white"/>
<path d="M34.4016 8.70991C33.9561 8.70991 33.5573 8.63805 33.2052 8.49433C32.8602 8.34342 32.5656 8.13863 32.3213 7.87994C32.0842 7.62124 31.9009 7.31225 31.7716 6.95296C31.6494 6.59366 31.5883 6.19844 31.5883 5.76729C31.5883 5.34332 31.6494 4.95169 31.7716 4.5924C31.9009 4.2331 32.0842 3.92411 32.3213 3.66542C32.5656 3.40673 32.8602 3.20552 33.2052 3.06181C33.5573 2.9109 33.9561 2.83545 34.4016 2.83545C34.8471 2.83545 35.2424 2.9109 35.5873 3.06181C35.9394 3.20552 36.234 3.40673 36.4712 3.66542C36.7155 3.92411 36.8987 4.2331 37.0209 4.5924C37.1502 4.95169 37.2149 5.34332 37.2149 5.76729C37.2149 6.19844 37.1502 6.59366 37.0209 6.95296C36.8987 7.31225 36.7155 7.62124 36.4712 7.87994C36.234 8.13863 35.9394 8.34342 35.5873 8.49433C35.2424 8.63805 34.8471 8.70991 34.4016 8.70991ZM34.4016 7.73981C34.6747 7.73981 34.9118 7.68232 35.113 7.56735C35.3142 7.45238 35.4795 7.30147 35.6088 7.11464C35.7382 6.92781 35.8316 6.71942 35.8891 6.48947C35.9538 6.25234 35.9861 6.01161 35.9861 5.76729C35.9861 5.53015 35.9538 5.29302 35.8891 5.05589C35.8316 4.81875 35.7382 4.61036 35.6088 4.43072C35.4795 4.24388 35.3142 4.09298 35.113 3.97801C34.9118 3.86303 34.6747 3.80554 34.4016 3.80554C34.1286 3.80554 33.8914 3.86303 33.6902 3.97801C33.489 4.09298 33.3237 4.24388 33.1944 4.43072C33.065 4.61036 32.968 4.81875 32.9034 5.05589C32.8459 5.29302 32.8171 5.53015 32.8171 5.76729C32.8171 6.01161 32.8459 6.25234 32.9034 6.48947C32.968 6.71942 33.065 6.92781 33.1944 7.11464C33.3237 7.30147 33.489 7.45238 33.6902 7.56735C33.8914 7.68232 34.1286 7.73981 34.4016 7.73981Z" fill="white"/>
<path d="M38.452 2.98635H39.6161V3.80554L39.6377 3.8271C39.8245 3.51811 40.0688 3.27738 40.3706 3.10492C40.6724 2.92527 41.0066 2.83545 41.3731 2.83545C41.9839 2.83545 42.4653 2.99354 42.8174 3.30972C43.1695 3.6259 43.3456 4.10016 43.3456 4.73252V8.559H42.1168V5.05589C42.1024 4.61755 42.009 4.30137 41.8366 4.10735C41.6641 3.90615 41.3946 3.80554 41.0281 3.80554C40.8198 3.80554 40.6329 3.84507 40.4677 3.92411C40.3024 3.99597 40.1623 4.10016 40.0473 4.2367C39.9323 4.36604 39.8425 4.52054 39.7778 4.70019C39.7131 4.87983 39.6808 5.07026 39.6808 5.27146V8.559H38.452V2.98635Z" fill="white"/>
</svg>
