<svg width="94" height="16" viewBox="0 0 94 16" fill="none" xmlns="http://www.w3.org/2000/svg">
<path d="M11.884 12.4222H10.5474L10.23 11.0188C9.67306 11.6536 9.11615 12.0936 8.55925 12.3386C8.00234 12.5837 7.3619 12.7062 6.63792 12.7062C5.74687 12.7062 4.94493 12.5447 4.23209 12.2217C3.53039 11.8875 2.9345 11.4364 2.44442 10.8684C1.95435 10.3004 1.57565 9.63764 1.30834 8.88025C1.05216 8.12286 0.924072 7.31534 0.924072 6.45771C0.924072 5.61121 1.05216 4.80927 1.30834 4.05188C1.57565 3.29448 1.95435 2.63177 2.44442 2.06372C2.9345 1.49568 3.53039 1.04459 4.23209 0.710443C4.94493 0.3763 5.74687 0.209229 6.63792 0.209229C7.28393 0.209229 7.89653 0.298333 8.47571 0.476543C9.06603 0.643614 9.58952 0.899791 10.0462 1.24507C10.5028 1.57922 10.8815 2.00246 11.1823 2.51482C11.483 3.02717 11.6723 3.61749 11.7503 4.28578H9.71204C9.65635 3.89594 9.53383 3.55623 9.34448 3.26664C9.16627 2.96591 8.93794 2.7153 8.65949 2.51482C8.38104 2.31433 8.06917 2.16397 7.72389 2.06372C7.37861 1.96348 7.01662 1.91336 6.63792 1.91336C6.00305 1.91336 5.45171 2.04145 4.98391 2.29762C4.52725 2.5538 4.15412 2.89908 3.86453 3.33347C3.57494 3.75672 3.35775 4.24122 3.21295 4.78699C3.0793 5.33276 3.01247 5.88966 3.01247 6.45771C3.01247 7.02575 3.0793 7.58266 3.21295 8.12843C3.35775 8.67419 3.57494 9.16427 3.86453 9.59866C4.15412 10.0219 4.52725 10.3616 4.98391 10.6178C5.45171 10.874 6.00305 11.0021 6.63792 11.0021C7.17255 11.0132 7.64592 10.9464 8.05803 10.8016C8.47014 10.6456 8.81542 10.4284 9.09388 10.15C9.38347 9.8604 9.60066 9.50955 9.74546 9.09744C9.89025 8.68533 9.96822 8.22867 9.97936 7.72745H6.80499V6.14027H11.884V12.4222Z" fill="white"/>
<path d="M17.8449 12.6561C17.1543 12.6561 16.5362 12.5447 15.9904 12.3219C15.4558 12.088 14.9991 11.7706 14.6204 11.3696C14.2529 10.9686 13.9688 10.4897 13.7684 9.9328C13.579 9.37589 13.4843 8.7633 13.4843 8.09501C13.4843 7.43786 13.579 6.83083 13.7684 6.27393C13.9688 5.71702 14.2529 5.23809 14.6204 4.83711C14.9991 4.43614 15.4558 4.12427 15.9904 3.90151C16.5362 3.66761 17.1543 3.55066 17.8449 3.55066C18.5355 3.55066 19.1481 3.66761 19.6827 3.90151C20.2285 4.12427 20.6851 4.43614 21.0527 4.83711C21.4314 5.23809 21.7154 5.71702 21.9047 6.27393C22.1052 6.83083 22.2055 7.43786 22.2055 8.09501C22.2055 8.7633 22.1052 9.37589 21.9047 9.9328C21.7154 10.4897 21.4314 10.9686 21.0527 11.3696C20.6851 11.7706 20.2285 12.088 19.6827 12.3219C19.1481 12.5447 18.5355 12.6561 17.8449 12.6561ZM17.8449 11.1524C18.2682 11.1524 18.6357 11.0633 18.9476 10.8851C19.2594 10.7069 19.5156 10.473 19.7161 10.1834C19.9166 9.89382 20.0614 9.57081 20.1505 9.21439C20.2507 8.84683 20.3009 8.47371 20.3009 8.09501C20.3009 7.72745 20.2507 7.35989 20.1505 6.99234C20.0614 6.62478 19.9166 6.30177 19.7161 6.02332C19.5156 5.73373 19.2594 5.49983 18.9476 5.32162C18.6357 5.14341 18.2682 5.05431 17.8449 5.05431C17.4217 5.05431 17.0541 5.14341 16.7422 5.32162C16.4304 5.49983 16.1742 5.73373 15.9737 6.02332C15.7732 6.30177 15.6229 6.62478 15.5226 6.99234C15.4335 7.35989 15.389 7.72745 15.389 8.09501C15.389 8.47371 15.4335 8.84683 15.5226 9.21439C15.6229 9.57081 15.7732 9.89382 15.9737 10.1834C16.1742 10.473 16.4304 10.7069 16.7422 10.8851C17.0541 11.0633 17.4217 11.1524 17.8449 11.1524Z" fill="white"/>
<path d="M27.7485 12.6561C27.0579 12.6561 26.4397 12.5447 25.894 12.3219C25.3593 12.088 24.9027 11.7706 24.524 11.3696C24.1564 10.9686 23.8724 10.4897 23.6719 9.9328C23.4826 9.37589 23.3879 8.7633 23.3879 8.09501C23.3879 7.43786 23.4826 6.83083 23.6719 6.27393C23.8724 5.71702 24.1564 5.23809 24.524 4.83711C24.9027 4.43614 25.3593 4.12427 25.894 3.90151C26.4397 3.66761 27.0579 3.55066 27.7485 3.55066C28.439 3.55066 29.0516 3.66761 29.5863 3.90151C30.132 4.12427 30.5887 4.43614 30.9562 4.83711C31.3349 5.23809 31.619 5.71702 31.8083 6.27393C32.0088 6.83083 32.109 7.43786 32.109 8.09501C32.109 8.7633 32.0088 9.37589 31.8083 9.9328C31.619 10.4897 31.3349 10.9686 30.9562 11.3696C30.5887 11.7706 30.132 12.088 29.5863 12.3219C29.0516 12.5447 28.439 12.6561 27.7485 12.6561ZM27.7485 11.1524C28.1717 11.1524 28.5393 11.0633 28.8511 10.8851C29.163 10.7069 29.4192 10.473 29.6197 10.1834C29.8202 9.89382 29.965 9.57081 30.0541 9.21439C30.1543 8.84683 30.2044 8.47371 30.2044 8.09501C30.2044 7.72745 30.1543 7.35989 30.0541 6.99234C29.965 6.62478 29.8202 6.30177 29.6197 6.02332C29.4192 5.73373 29.163 5.49983 28.8511 5.32162C28.5393 5.14341 28.1717 5.05431 27.7485 5.05431C27.3252 5.05431 26.9577 5.14341 26.6458 5.32162C26.3339 5.49983 26.0778 5.73373 25.8773 6.02332C25.6768 6.30177 25.5264 6.62478 25.4262 6.99234C25.3371 7.35989 25.2925 7.72745 25.2925 8.09501C25.2925 8.47371 25.3371 8.84683 25.4262 9.21439C25.5264 9.57081 25.6768 9.89382 25.8773 10.1834C26.0778 10.473 26.3339 10.7069 26.6458 10.8851C26.9577 11.0633 27.3252 11.1524 27.7485 11.1524Z" fill="white"/>
<path d="M41.6785 11.9711C41.6785 13.2742 41.3109 14.2432 40.5758 14.8781C39.8518 15.5241 38.8048 15.8471 37.4348 15.8471C37.0005 15.8471 36.5605 15.8026 36.115 15.7135C35.6806 15.6244 35.2796 15.474 34.9121 15.2624C34.5556 15.0508 34.2549 14.7723 34.0099 14.427C33.7648 14.0817 33.62 13.6585 33.5755 13.1573H35.4801C35.5358 13.4246 35.6305 13.6418 35.7641 13.8089C35.8978 13.9759 36.0537 14.104 36.2319 14.1931C36.4213 14.2934 36.6273 14.3546 36.8501 14.3769C37.0729 14.4103 37.3068 14.427 37.5518 14.427C38.3203 14.427 38.8828 14.2377 39.2392 13.859C39.5956 13.4803 39.7738 12.9345 39.7738 12.2217V10.9018H39.7404C39.4731 11.3808 39.1056 11.7539 38.6378 12.0212C38.1811 12.2885 37.6855 12.4222 37.1508 12.4222C36.4603 12.4222 35.8699 12.3052 35.3799 12.0713C34.9009 11.8263 34.5 11.4977 34.1769 11.0856C33.8651 10.6623 33.6367 10.1778 33.492 9.63207C33.3472 9.0863 33.2748 8.50155 33.2748 7.87782C33.2748 7.29864 33.3639 6.7473 33.5421 6.22381C33.7203 5.70032 33.9765 5.24365 34.3106 4.85382C34.6447 4.45285 35.0513 4.13541 35.5302 3.90151C36.0203 3.66761 36.5716 3.55066 37.1842 3.55066C37.73 3.55066 38.2312 3.66761 38.6879 3.90151C39.1445 4.12427 39.4954 4.48069 39.7404 4.97077H39.7738V3.78456H41.6785V11.9711ZM37.4515 10.9185C37.8748 10.9185 38.2312 10.835 38.5208 10.6679C38.8215 10.4897 39.061 10.2614 39.2392 9.98292C39.4286 9.69333 39.5622 9.37033 39.6402 9.01391C39.7293 8.64635 39.7738 8.27879 39.7738 7.91123C39.7738 7.54367 39.7293 7.18725 39.6402 6.84197C39.5511 6.49669 39.4119 6.19039 39.2225 5.92308C39.0443 5.65576 38.8048 5.44414 38.5041 5.28821C38.2145 5.13227 37.8637 5.05431 37.4515 5.05431C37.0283 5.05431 36.6719 5.14341 36.3823 5.32162C36.0927 5.49983 35.8588 5.73373 35.6806 6.02332C35.5024 6.30177 35.3743 6.62478 35.2963 6.99234C35.2184 7.34876 35.1794 7.70518 35.1794 8.0616C35.1794 8.41802 35.2239 8.76886 35.313 9.11415C35.4021 9.44829 35.5358 9.74902 35.714 10.0163C35.9034 10.2836 36.1373 10.5008 36.4157 10.6679C36.7053 10.835 37.0506 10.9185 37.4515 10.9185Z" fill="white"/>
<path d="M43.6461 0.49325H45.5507V12.4222H43.6461V0.49325Z" fill="white"/>
<path d="M53.557 7.34319C53.5347 7.04246 53.4679 6.75287 53.3565 6.47442C53.2563 6.19596 53.1115 5.95649 52.9221 5.75601C52.7439 5.54438 52.5212 5.37731 52.2538 5.25479C51.9977 5.12113 51.7081 5.05431 51.3851 5.05431C51.0509 5.05431 50.7446 5.11557 50.4662 5.23809C50.1989 5.34947 49.965 5.51097 49.7645 5.72259C49.5751 5.92308 49.4192 6.16255 49.2967 6.441C49.1853 6.71945 49.124 7.02018 49.1129 7.34319H53.557ZM49.1129 8.59622C49.1129 8.93037 49.1574 9.25337 49.2465 9.56524C49.3468 9.87711 49.4916 10.15 49.6809 10.3839C49.8703 10.6178 50.1097 10.8071 50.3993 10.9519C50.6889 11.0856 51.0342 11.1524 51.4352 11.1524C51.9921 11.1524 52.4376 11.0355 52.7718 10.8016C53.117 10.5565 53.3732 10.1945 53.5403 9.7156H55.3447C55.2444 10.1834 55.0718 10.6011 54.8267 10.9686C54.5817 11.3362 54.2865 11.6481 53.9413 11.9042C53.596 12.1493 53.2062 12.3331 52.7718 12.4556C52.3485 12.5892 51.903 12.6561 51.4352 12.6561C50.7558 12.6561 50.1543 12.5447 49.6308 12.3219C49.1073 12.0992 48.6618 11.7873 48.2942 11.3863C47.9378 10.9853 47.6649 10.5064 47.4756 9.94951C47.2974 9.3926 47.2083 8.78 47.2083 8.11172C47.2083 7.49912 47.3029 6.91994 47.4923 6.37417C47.6928 5.81727 47.9712 5.33276 48.3277 4.92065C48.6952 4.4974 49.1352 4.16326 49.6475 3.91822C50.1599 3.67318 50.7391 3.55066 51.3851 3.55066C52.0645 3.55066 52.6715 3.69546 53.2062 3.98505C53.7519 4.2635 54.203 4.63663 54.5594 5.10443C54.9158 5.57223 55.172 6.11243 55.328 6.72502C55.495 7.32648 55.5396 7.95021 55.4616 8.59622H49.1129Z" fill="white"/>
<path d="M61.8268 0.49325H67.0895C67.936 0.49325 68.6266 0.615769 69.1612 0.860807C69.6959 1.10585 70.108 1.41214 70.3976 1.7797C70.6872 2.14726 70.8821 2.54823 70.9823 2.98262C71.0937 3.417 71.1494 3.81798 71.1494 4.18553C71.1494 4.55309 71.0937 4.95406 70.9823 5.38845C70.8821 5.8117 70.6872 6.2071 70.3976 6.57466C70.108 6.94222 69.6959 7.24851 69.1612 7.49355C68.6266 7.72745 67.936 7.8444 67.0895 7.8444H63.9152V12.4222H61.8268V0.49325ZM63.9152 6.14027H66.9726C67.2065 6.14027 67.446 6.10686 67.691 6.04003C67.936 5.9732 68.1588 5.86739 68.3593 5.72259C68.5709 5.56666 68.738 5.36617 68.8605 5.12114C68.9942 4.86496 69.061 4.54752 69.061 4.16883C69.061 3.77899 69.0053 3.45599 68.8939 3.19981C68.7825 2.94363 68.6322 2.74315 68.4428 2.59835C68.2535 2.44242 68.0363 2.33661 67.7912 2.28092C67.5462 2.22523 67.2845 2.19738 67.006 2.19738H63.9152V6.14027Z" fill="white"/>
<path d="M72.7531 0.49325H74.6578V12.4222H72.7531V0.49325Z" fill="white"/>
<path d="M83.9672 10.5008C83.9672 10.7347 83.995 10.9018 84.0507 11.0021C84.1175 11.1023 84.2401 11.1524 84.4183 11.1524C84.474 11.1524 84.5408 11.1524 84.6188 11.1524C84.6967 11.1524 84.7858 11.1413 84.8861 11.119V12.4389C84.8192 12.4612 84.7301 12.4834 84.6188 12.5057C84.5185 12.5391 84.4127 12.567 84.3013 12.5892C84.1899 12.6115 84.0786 12.6282 83.9672 12.6394C83.8558 12.6505 83.7611 12.6561 83.6832 12.6561C83.2933 12.6561 82.9703 12.5781 82.7141 12.4222C82.458 12.2662 82.2909 11.9933 82.2129 11.6035C81.8342 11.9711 81.3664 12.2384 80.8095 12.4055C80.2638 12.5725 79.7347 12.6561 79.2223 12.6561C78.8325 12.6561 78.4594 12.6004 78.103 12.489C77.7465 12.3888 77.4291 12.2384 77.1507 12.0379C76.8833 11.8263 76.6661 11.5645 76.4991 11.2527C76.3431 10.9297 76.2652 10.5565 76.2652 10.1333C76.2652 9.59866 76.3598 9.16427 76.5492 8.83012C76.7497 8.49598 77.0059 8.23424 77.3177 8.04489C77.6407 7.85554 77.9971 7.72188 78.387 7.64392C78.788 7.55481 79.1889 7.48798 79.5899 7.44343C79.9352 7.3766 80.2638 7.33205 80.5756 7.30977C80.8875 7.27636 81.1604 7.22624 81.3943 7.15941C81.6393 7.09258 81.8287 6.99234 81.9623 6.85868C82.1071 6.71388 82.1795 6.50226 82.1795 6.22381C82.1795 5.97877 82.1182 5.77828 81.9957 5.62235C81.8843 5.46642 81.7396 5.34947 81.5613 5.2715C81.3943 5.18239 81.2049 5.1267 80.9933 5.10443C80.7817 5.07101 80.5812 5.05431 80.3918 5.05431C79.8572 5.05431 79.4173 5.16569 79.072 5.38845C78.7267 5.61121 78.5318 5.95649 78.4872 6.42429H76.5826C76.616 5.86739 76.7497 5.40516 76.9836 5.0376C77.2175 4.67004 77.5126 4.37488 77.8691 4.15212C78.2366 3.92936 78.6487 3.77342 79.1054 3.68432C79.562 3.59521 80.0299 3.55066 80.5088 3.55066C80.932 3.55066 81.3497 3.59521 81.7618 3.68432C82.1739 3.77342 82.5415 3.91822 82.8645 4.1187C83.1986 4.31919 83.466 4.58094 83.6665 4.90394C83.8669 5.21581 83.9672 5.60007 83.9672 6.05674V10.5008ZM82.0626 8.09501C81.773 8.28436 81.4165 8.40131 80.9933 8.44586C80.5701 8.47927 80.1468 8.53497 79.7236 8.61293C79.5231 8.64635 79.3282 8.69647 79.1388 8.7633C78.9495 8.81899 78.7824 8.90252 78.6376 9.01391C78.4928 9.11415 78.3758 9.25337 78.2867 9.43158C78.2088 9.59865 78.1698 9.80471 78.1698 10.0497C78.1698 10.2614 78.231 10.4396 78.3536 10.5844C78.4761 10.7292 78.6209 10.8461 78.788 10.9352C78.9662 11.0132 79.1555 11.0689 79.356 11.1023C79.5676 11.1357 79.757 11.1524 79.924 11.1524C80.1357 11.1524 80.364 11.1246 80.609 11.0689C80.8541 11.0132 81.0824 10.9185 81.294 10.7849C81.5168 10.6512 81.7006 10.4841 81.8454 10.2836C81.9902 10.072 82.0626 9.81585 82.0626 9.51512V8.09501Z" fill="white"/>
<path d="M85.0642 3.78456H87.1526L89.4081 10.2335H89.4415L91.6302 3.78456H93.6183L90.2602 12.89C90.1042 13.2798 89.9483 13.6529 89.7924 14.0093C89.6476 14.3658 89.4638 14.6776 89.241 14.9449C89.0294 15.2234 88.7621 15.4406 88.4391 15.5965C88.1161 15.7636 87.704 15.8471 87.2028 15.8471C86.7572 15.8471 86.3173 15.8137 85.8829 15.7469V14.143C86.0388 14.1653 86.1892 14.1876 86.334 14.2098C86.4788 14.2432 86.6291 14.26 86.7851 14.26C87.0078 14.26 87.1916 14.2321 87.3364 14.1764C87.4812 14.1207 87.5982 14.0372 87.6873 13.9258C87.7875 13.8256 87.871 13.703 87.9379 13.5583C88.0047 13.4135 88.066 13.2464 88.1217 13.057L88.3388 12.3888L85.0642 3.78456Z" fill="white"/>
</svg>
